<?xml version="1.0" encoding="utf-8" ?><svg xmlns="http://www.w3.org/2000/svg" xmlns:xlink="http://www.w3.org/1999/xlink" width="1120" height="960" viewBox="0 0 1120 960"><path fill="#ACAAAB" d="M545.584 169.438C550.744 169.632 581.453 189.856 587.759 190.804C603.347 192.909 619.54 191.568 635.258 191.956C639.748 192.067 649.963 190.717 652.47 194.793C661.607 209.647 669.912 225.05 678.757 240.094C690.275 246.543 706.059 254.018 716.858 261.142C717.146 268.111 717.555 302.864 718.657 306.42C722.174 317.769 742.784 352.163 749.626 362.346C744.432 373.077 722.908 406.165 721.778 413.246C720.318 422.383 722.507 444.466 722.928 454.78C716.562 458.216 685.668 476.705 682.775 480.55C673.25 493.212 658.947 519.608 650.958 533.946C634.19 534.345 610.734 532.362 594.724 534.786C589.816 535.529 563.98 552.65 557.951 556.407C553.959 555.448 535.627 543.59 530.566 541.389C527.254 539.949 520.726 535.547 516.876 534.803C508.474 533.178 497.277 533.744 488.634 533.814L453.267 534.132C444.764 521.572 431.742 492.945 421.564 483.694C419.457 481.778 391.159 466.989 386.557 464.49L386.238 436.878C386.15 430.969 386.501 424.559 385.265 418.764C384.118 413.384 358.648 371.255 353.792 362.726C359.648 353.874 380.947 319.542 382.032 309.81C382.591 304.795 380.95 279.134 381.121 271.236C388.526 266.344 396.031 261.604 403.631 257.019C409.039 253.686 414.904 250.463 419.732 246.316C426.11 240.838 447.225 201.776 453.018 191.841C469.191 190.29 489.796 193.176 505.655 191.266C515.363 190.097 536.567 175.272 545.584 169.438ZM584.127 530.566C588.432 529.238 679.261 473.141 683.186 469.209C689.302 463.083 705.831 432.972 710.595 423.854C712.366 420.465 713.476 417.449 713.718 413.581C714.521 400.76 712.894 387.103 712.535 374.232C711.926 352.454 712.214 330.413 710.763 308.7C710.591 306.129 710.245 303.517 709.433 301.064C706.963 293.603 685.018 255.316 679.908 250.874C673.95 245.696 656.82 237.605 648.761 233.218C627.188 221.478 605.775 208.944 583.583 198.413C580.526 196.963 577.392 195.389 574.02 194.855C567.667 193.85 560.324 194.527 553.864 194.553C542.643 194.598 531.352 194.4 520.139 194.771L452.197 236.424C440.143 243.794 421.398 252.545 414.726 264.555C406.785 278.849 397.079 293.157 390.417 308.03C389.563 309.937 390.191 324.444 390.274 327.381C390.645 340.39 391.093 353.398 391.621 366.402C392.141 382.587 391.948 398.952 392.78 415.102C392.919 417.803 393.162 420.561 393.892 423.173C396.472 432.405 414.548 462.064 420.339 470.59C421.024 471.599 421.751 472.603 422.506 473.56C426.038 478.036 514.715 524.645 525.587 529.52C527.473 530.365 529.36 530.751 531.404 530.934C539.106 531.624 547.185 531.004 554.921 530.869C564.653 530.699 574.399 530.82 584.127 530.566ZM455.292 530.912C472.438 531.134 493.336 530.407 509.942 531.162C495.907 522.57 478.71 514.195 464.131 506.121C457.784 502.606 436.441 490.543 430.265 488.238L455.292 530.912ZM721.025 405.762L730.895 388.787C735.813 380.439 741.533 371.076 745.983 362.543C742.518 356.938 721.14 318.274 718.587 316.479L721.025 405.762ZM427.562 242.287C437.472 236.373 448.428 228.803 458.012 223.359L504.641 194.689L455.286 194.729C445.748 210.407 436.505 226.262 427.562 242.287ZM412.385 260.988C404.604 265.938 396.728 270.739 388.762 275.386C388.864 278.887 389.28 298.019 389.866 300.006C397.898 287.731 404.969 274.201 412.662 261.665L412.385 260.988ZM524.817 191.484L550.977 191.5C556.446 191.499 565.744 191.255 570.864 191.793C566.837 189.38 550.343 179.356 546.322 178.156C539.104 182.517 531.935 186.96 524.817 191.484ZM709.228 265.779C701.86 261.809 693.595 257.03 686.017 253.772C691.447 261.173 701.856 279.818 707.009 288.511C707.821 289.928 708.445 291.671 709.681 292.154C709.761 290.936 709.813 290.763 709.7 289.558C709.594 281.631 709.436 273.704 709.228 265.779ZM648.457 530.632C654.669 520.327 660.794 509.969 666.832 499.56C668.428 496.817 673.968 487.588 674.807 485.123L674.231 484.568L624.543 515.221C620.212 517.899 604.469 527.307 601.365 530.055L601.713 530.666C617.294 530.807 632.876 530.796 648.457 530.632ZM572.16 538.746C574.847 537.135 577.648 535.391 580.353 533.842C564.484 533.944 548.702 533.683 532.839 533.975C540.948 538.43 549.431 542.876 557.27 547.72L572.16 538.746ZM385.591 410.689C384.922 400.711 383.371 323.966 381.982 320.893C373.991 334.765 365.82 349.106 357.557 362.787C364.126 373.403 369.904 384.488 376.417 395.151C379.12 399.873 383.248 406.22 385.591 410.689ZM394.034 433.048C394.41 441.947 394.268 451.252 394.794 460.031C400.571 463.339 411.025 469.428 417.169 471.803C414.057 466.44 396.809 435.481 394.034 433.048ZM713.409 426.513C706.286 438.07 697.557 452.023 691.416 463.962L691.794 464.448L692.374 464.505C699.967 459.763 707.53 454.972 715.061 450.132C714.94 446.922 714.666 427.745 713.409 426.513ZM594.533 194.84C610.635 203.447 626.679 212.164 642.664 220.988C652.321 226.284 663.837 232.913 673.731 237.591C665.465 223.277 657.328 208.907 648.419 194.983C634.958 194.116 608.42 194.155 594.533 194.84Z"/><path fill="#ACAAAB" d="M502.092 390.958C513.084 391.466 526.546 391.086 537.785 391.078L601.772 391.079L601.626 399.399C587.777 398.974 572.141 399.238 558.209 399.246C539.474 399.172 520.738 399.253 502.005 399.489L502.092 390.958Z"/><path fill="#ACAAAB" d="M508.568 313.363L595.482 313.429C595.536 315.731 595.912 320.436 594.83 322.092C576.099 320.891 556.311 322.43 537.491 322.003C528.05 321.789 517.841 321.783 508.416 322.166L508.568 313.363Z"/><path fill="#ACAAAB" d="M516.215 350.861C539.528 351.002 562.843 350.948 586.155 350.7L586.235 359.546C579.544 359.957 569.245 359.564 562.18 359.552L516.257 359.581L516.215 350.861Z"/><defs><linearGradient id="gradient_0" gradientUnits="userSpaceOnUse" x1="708.92218" y1="287.66504" x2="707.12677" y2="288.91589"><stop offset="0" stop-color="white" stop-opacity="0"/><stop offset="1" stop-color="#FDFDFD" stop-opacity="0.031372551"/></linearGradient></defs><path fill="url(#gradient_0)" d="M707.009 288.511L707.493 286.874L708.23 286.791C708.712 287.718 709.203 288.64 709.7 289.558C709.813 290.763 709.761 290.936 709.681 292.154C708.445 291.671 707.821 289.928 707.009 288.511Z"/><path fill="#ACAAAB" d="M637.834 652.301L642.079 652.246C642.11 657.981 641.728 663.819 642.097 669.58C642.271 672.299 643.598 672.34 646.181 674.374C646.582 675.95 646.674 675.212 645.86 676.654C643.896 678.293 607.613 677.043 601.985 677.518C596.848 677.952 598.589 675.879 597.177 674.367C595.032 674.292 594.576 674.654 593.827 672.654C593.501 671.789 593.187 670.918 592.885 670.044C592.065 667.654 590.06 662.085 591.064 660.017C596.804 659.358 596.149 670.959 600.341 673.017L601.134 672.48C602.905 668.15 602.128 657.747 602.011 652.716C611.167 651.99 628.03 652.404 637.834 652.301ZM618.325 672.887C620.428 672.904 623.252 673.013 625.291 672.871L625.095 657.18L618.337 657.089L618.325 672.887ZM629.566 672.685C631.786 672.768 634.318 672.94 636.509 672.8C636.611 667.585 636.73 662.629 636.545 657.409L629.531 657.346C629.498 662.37 629.371 667.689 629.566 672.685ZM607.03 672.904C609.385 672.983 611.634 673.112 613.987 672.949L613.78 657.433C611.721 657.353 608.992 657.332 607.003 657.101L607.03 672.904Z"/><path fill="#ACAAAB" d="M604.417 621.415L639.213 621.411C639.234 630.17 639.056 638.853 639.132 647.644C627.554 647.563 615.976 647.547 604.399 647.597L604.417 621.415ZM609.694 643.502L633.853 643.461L633.51 636.796C625.469 636.502 617.723 636.584 609.689 636.656L609.694 643.502ZM609.678 632.587C617.529 632.643 625.38 632.615 633.23 632.502C634.115 630.934 633.667 628.067 633.597 625.976C625.501 625.648 617.769 625.764 609.668 625.926L609.678 632.587Z"/><path fill="#ACAAAB" d="M618.454 607.609C618.482 607.162 618.516 606.715 618.555 606.269C618.811 603.394 619.006 603.252 620.888 601.657C624.949 601.055 624.632 604.715 624.727 607.585C629.589 607.527 642.701 606.401 645.552 610.298C642.815 614.26 629.159 613.305 624.576 613.287C624.71 615.707 625.052 618.514 623.757 620.473C621.618 620.307 620.852 620.46 619.21 619.254C618.184 617.413 618.462 615.445 618.464 613.253C611.104 613.146 603.593 613.222 596.22 613.221C596.222 616.385 596.729 617.697 594.023 619.72C589.951 620.077 590.086 616.369 589.978 613.375C584.151 613.06 574.622 614.68 570.322 611.594C569.238 609.706 569.331 610.642 569.765 608.729C571.848 606.985 585.716 607.643 589.948 607.354L589.695 601.546C591.666 601.545 593.842 601.293 595.413 602.357C596.61 603.952 596.333 605.525 596.35 607.622L618.454 607.609Z"/><path fill="#ACAAAB" d="M459.815 667.401C484.225 667.416 508.841 667.147 533.23 667.439C533.44 669.365 533.433 671.713 533.481 673.682C530.205 674.323 463.162 673.952 460.372 673.226C459.529 671.236 459.774 669.592 459.815 667.401Z"/><path fill="#ACAAAB" d="M584.429 619.984C586.289 620.734 587.218 621.26 587.882 623.074C587.173 626.808 580.441 631.912 577.206 634.91C582.075 634.575 584.952 634.3 589.758 633.408C591.96 631.126 592.856 629.559 595.89 629.363C597.724 630.365 597.628 629.922 598.228 631.425C595.652 635.765 583.082 646.286 578.69 649.956C583.279 649.883 587.421 649.611 591.981 649.29C590.984 647.222 589.374 645.178 591.213 643.407C594.442 643.981 595.195 646.389 596.632 649.029C598.037 652.001 600.207 655.549 597.048 658.148L595.643 657.814C593.966 656.454 593.935 655.669 593.206 653.51C587.507 653.587 572.77 656.945 569.204 652.937C569.378 651.936 569.45 651.246 570.386 650.568C576.035 646.473 579.986 643.473 584.841 638.385C580.952 638.39 573.272 639.913 570.44 638.399L570.164 637.102C571.447 633.108 580.37 625.55 584.429 619.984Z"/><path fill="#ACAAAB" d="M465.153 610.557C486.345 610.289 507.538 610.201 528.731 610.293L528.681 616.463L485.988 616.44C481.526 616.439 468.966 616.73 465.303 616.132C464.619 614.304 464.987 612.555 465.153 610.557Z"/><path fill="#ACAAAB" d="M470.385 637.817L521.739 637.747C522.028 640.019 521.918 642.013 521.878 644.295C505.217 644.641 487.239 644.32 470.445 644.327L470.385 637.817Z"/><path fill="#ACAAAB" d="M573.015 660.006C574.468 660.569 575.615 660.653 576.196 661.967C577.946 665.924 574.252 675.174 572.958 679.23C571.422 678.719 570.907 678.711 570.009 677.37C569.065 672.977 571.767 664.538 573.015 660.006Z"/><path fill="#ACAAAB" d="M581.74 659.443C586.987 661.055 588.124 673.92 586.904 678.165C586.624 678.128 585.411 677.979 585.212 677.886C580.668 675.78 580.503 663.286 581.74 659.443Z"/></svg>