<?xml version="1.0" encoding="utf-8" ?><svg xmlns="http://www.w3.org/2000/svg" xmlns:xlink="http://www.w3.org/1999/xlink" width="960" height="960" viewBox="0 0 960 960"><path fill="#FBFAFC" transform="scale(0.857143 1)" d="M0 0L1120 0L1120 960L0 960L0 0Z"/><path fill="#ACABAB" transform="scale(0.857143 1)" d="M572.034 182.994L546.318 169.062C541.13 172.31 513.184 190.408 510.264 190.756C499.407 192.05 479.299 191.788 464.147 191.591C460.076 191.538 456.362 191.489 453.282 191.477L434.074 224.44C422.604 244.291 425.934 243.574 405.918 255.869C397.499 260.995 389.106 266.166 380.74 271.38C380.763 271.727 380.788 272.099 380.815 272.494C381.469 282.199 383.055 305.732 381.692 313.203C380.539 319.526 358.885 354.486 353.978 362.986C364.086 379.966 374.927 400.814 385.476 416.888C386.125 432.763 386.547 448.647 386.741 464.535C393.972 468.607 401.268 472.562 408.628 476.396C413.554 479.005 418.965 481.423 423.372 484.867C428.762 489.078 447.368 525.396 453.377 534.27C453.815 534.259 454.322 534.247 454.893 534.233C467.411 533.921 510.424 532.851 516.688 534.828C525.505 537.609 548.1 551.604 557.836 556.695L578.184 544.102C583.111 541 588.104 537.23 593.546 535.1C598.703 533.081 627.49 533.7 642.936 534.032C646.294 534.104 649.022 534.163 650.739 534.178C657.008 523.525 663.187 512.818 669.273 502.059C671.616 497.954 680.438 481.701 682.759 480.089C693.696 472.491 711.368 461.324 722.843 454.736C722.32 440.379 721.909 426.018 721.612 411.655C730.077 396.503 742.36 377.547 749.661 362.474C744.712 354.131 720.136 314.001 718.783 307.751C717.806 303.236 717.786 298.246 717.768 293.452C717.762 291.968 717.756 290.502 717.722 289.076C717.521 279.763 717.254 270.451 716.92 261.142C705.66 254.297 690.936 246.958 679.044 240.481L650.672 191.506C648.763 191.511 645.459 191.558 641.324 191.617C623.997 191.865 592.089 192.321 587.221 190.722C582.011 189.009 576.844 185.61 572.034 182.994Z"/><path fill="#FBFAFC" transform="scale(0.857143 1)" d="M522.498 194.799C521.54 194.819 520.582 194.845 519.625 194.877L447.647 239.227C439.638 244.184 431.497 249.031 423.492 253.976C417.433 257.72 413.285 267.073 409.643 273.41C403.133 284.83 396.56 296.214 389.927 307.562C390.354 335.139 391.633 362.733 392.506 390.302C392.573 392.418 392.585 395.312 392.599 398.545C392.635 407.406 392.683 418.81 393.904 423.709C394.952 427.912 420.224 471.799 423.266 474.84C424.738 476.311 522.487 529.418 527.926 530.683C531.668 531.554 537.507 531.265 542.583 531.013C544.636 530.912 546.565 530.816 548.179 530.806C552.461 530.78 556.755 530.803 561.051 530.826C568.908 530.869 576.773 530.911 584.595 530.652C592.177 526.582 601.22 520.66 608.671 516.062L650.122 490.455C654.024 488.04 683.05 470.595 684.184 468.782C693.89 453.255 704.755 434.944 713.313 418.497C714.123 416.94 713.346 398.127 713.054 391.061C713.011 390.023 712.978 389.238 712.963 388.799L711.505 342.433C711.309 335.953 711.287 306.719 710.023 302.054C708.721 297.251 684.36 255.167 680.786 251.331C677.807 248.133 581.45 196.367 576.798 195.247C572.266 194.157 566.654 194.361 561.472 194.55C559.596 194.619 557.777 194.685 556.085 194.687C552.851 194.691 549.615 194.683 546.378 194.676C538.417 194.656 530.449 194.637 522.498 194.799Z"/><path fill="#ACABAB" transform="scale(0.857143 1)" d="M601.548 391.013L502.219 391.047L502.181 399.469L601.534 399.439L601.548 391.013Z"/><path fill="#ACABAB" transform="scale(0.857143 1)" d="M595.477 313.377L508.559 313.384L508.467 322.078L595.496 322.068L595.477 313.377Z"/><path fill="#ACABAB" transform="scale(0.857143 1)" d="M586.268 350.834C562.935 350.943 539.602 350.914 516.27 350.749L516.24 359.666L586.004 359.68C586.395 357.228 586.346 354.818 586.295 352.355C586.285 351.851 586.275 351.344 586.268 350.834Z"/><path fill="#FBFAFC" transform="scale(0.857143 1)" d="M504.596 194.836C488.105 194.705 471.613 194.687 455.122 194.781C446.894 209.007 435.405 227.592 428.221 241.8C438.657 235.573 449.014 229.216 459.292 222.731L504.596 194.836Z"/><path fill="#FBFAFC" transform="scale(0.857143 1)" d="M463.579 505.88C457.551 502.504 436.51 490.701 430.771 488.405C432.705 492.962 437.125 500.026 439.758 504.516L455.034 530.798C460.149 530.799 465.572 530.851 471.11 530.903C484.044 531.025 497.609 531.153 509.357 530.668C495.678 522.371 477.953 513.929 463.579 505.88Z"/><path fill="#FBFAFC" transform="scale(0.857143 1)" d="M633.75 194.632C620.316 194.443 605.288 194.231 594.537 194.878C609.919 203.728 626.849 212.07 642.463 220.864C648.523 224.278 667.769 235.046 673.202 237.053C667.127 225.871 655.27 205.446 648.439 194.791C644.022 194.777 639.008 194.706 633.75 194.632Z"/><path fill="#FBFAFC" transform="scale(0.857143 1)" d="M745.908 362.572C742.164 356.265 721.544 319.107 718.664 316.56L720.435 376.489C720.739 385.869 720.757 396.215 721.278 405.463L730.724 389.208C735.755 380.424 741.06 371.431 745.908 362.572Z"/><path fill="#FBFAFC" transform="scale(0.857143 1)" d="M674.949 484.775L674.462 484.639C667.719 488.652 601.799 528.968 600.632 530.604L601.285 530.822C607.674 530.79 614.103 530.803 620.537 530.816C629.965 530.834 639.404 530.853 648.744 530.732C651.27 526.54 674.81 486.386 674.949 484.775Z"/><path fill="#FBFAFC" transform="scale(0.857143 1)" d="M383.343 348.584C383.213 344.228 382.917 324.184 382.08 320.923C374.823 333.712 364.692 349.999 358.067 362.673C363.682 373.32 370.584 384.743 376.615 395.284C379.185 399.646 382.556 405.761 385.274 409.856L383.343 348.584Z"/><path fill="#FBFAFC" transform="scale(0.857143 1)" d="M566.634 533.911C555.495 533.875 544.185 533.838 533.318 534.123C540.823 538.811 549.822 543.232 557.673 547.595C561.95 544.975 567.082 541.988 571.167 539.223L579.614 533.934C575.338 533.939 570.999 533.925 566.634 533.911Z"/><path fill="#FBFAFC" transform="scale(0.857143 1)" d="M412.615 261.616L412.245 261.01L388.767 275.548C388.907 279.287 389.292 297.805 389.837 300.262C397.631 288.107 405.375 274.205 412.615 261.616Z"/><path fill="#FBFAFC" transform="scale(0.857143 1)" d="M714.757 450.483C714.685 446.806 714.654 427.736 713.526 426.066C711.135 429.854 691.431 462.893 691.736 464.399L692.171 464.492C699.067 460.255 708.255 454.979 714.757 450.483Z"/><path fill="#FBFAFC" transform="scale(0.857143 1)" d="M416.937 471.743C413.97 466.392 396.655 434.988 393.82 432.528C394.037 441.757 394.328 450.984 394.694 460.208C398.405 462.154 414.342 470.915 416.937 471.743Z"/><path fill="#FBFAFC" transform="scale(0.857143 1)" d="M709.266 265.65C705.297 263.533 690.072 255.133 686.724 254.054L703.087 282.045C704.117 283.814 708.815 292.256 709.794 293.315C709.856 287.988 709.696 282.813 709.535 277.641C709.412 273.665 709.288 269.691 709.266 265.65Z"/><path fill="#FBFAFC" transform="scale(0.857143 1)" d="M570.545 191.498C568.826 190.235 548.893 179.053 546.711 178.235C539.489 182.142 532.151 186.996 525.184 191.427L550.43 191.497L570.545 191.498Z"/><path fill="#ACABAB" transform="scale(0.857143 1)" d="M642.169 652.103C628.692 652.324 615.214 652.39 601.736 652.3C601.742 653.256 601.758 654.441 601.776 655.762C601.849 661.141 601.953 668.768 601.507 672.323L600.571 673.077C596.188 671.689 596.958 660.422 592.2 658.583C590.974 659.167 591.05 659.105 590.354 660.273C590.717 662.209 593.624 673.163 594.515 674.337C595.642 674.375 595.884 674.25 596.648 673.855C596.808 673.773 596.991 673.678 597.211 673.57C598.462 674.756 597.286 677.47 598.499 677.572C603.301 677.977 611.11 677.858 616.859 677.771C618.178 677.75 619.389 677.732 620.43 677.722C621.18 677.727 622.301 677.742 623.661 677.761C630.388 677.855 642.967 678.031 645.473 677.39C646.154 676.363 646.093 675.465 646.016 674.314C646 674.082 645.984 673.839 645.973 673.584L645.292 672.788L642.746 672.628C641.901 671.352 642.04 662.547 642.133 656.695C642.165 654.66 642.191 652.983 642.169 652.103Z"/><path fill="#FBFAFC" transform="scale(0.857143 1)" d="M635.981 657.509C634.364 657.232 634.036 657.185 632.406 657.179L630.369 657.513C628.662 660.224 629.415 668.632 629.85 671.917C630.669 672.839 631.669 672.901 632.996 672.984C633.393 673.009 633.819 673.036 634.278 673.088L635.918 672.593C637.02 670.372 637.293 659.532 635.981 657.509Z"/><path fill="#FBFAFC" transform="scale(0.857143 1)" d="M625.197 657.222L618.505 657.11L618.391 672.688L625.164 672.771L625.197 657.222Z"/><path fill="#FBFAFC" transform="scale(0.857143 1)" d="M613.671 657.115L607.146 657.087L607.022 672.811L613.7 672.791L613.671 657.115Z"/><path fill="#ACABAB" transform="scale(0.857143 1)" d="M639.247 621.461L604.292 621.46C604.296 624.044 604.309 626.644 604.321 629.25C604.351 635.354 604.381 641.489 604.303 647.532L639.268 647.592L639.247 621.461Z"/><path fill="#FBFAFC" transform="scale(0.857143 1)" d="M612.571 636.688C611.435 636.708 610.482 636.725 609.802 636.732L609.791 643.192L633.456 643.22C633.465 642.856 633.482 642.485 633.498 642.112C633.575 640.381 633.655 638.594 633.001 637.11C630.418 636.37 618.769 636.577 612.571 636.688Z"/><path fill="#FBFAFC" transform="scale(0.857143 1)" d="M611.984 625.938C611.023 625.95 610.278 625.959 609.841 625.961L609.766 632.429L633.51 632.423C633.515 632.045 633.527 631.667 633.539 631.291C633.595 629.574 633.65 627.894 632.973 626.367C631.14 625.7 617.714 625.867 611.984 625.938Z"/><path fill="#ACABAB" transform="scale(0.857143 1)" d="M591.02 601.623C590.713 601.641 590.395 601.66 590.064 601.674C590.066 601.978 590.074 602.297 590.082 602.626C590.121 604.145 590.165 605.854 589.602 607.072C586.695 608.029 582.768 607.789 579.102 607.565C575.157 607.325 571.514 607.102 569.763 608.408C569.347 610.145 569.363 610.185 569.954 611.649C569.998 611.758 570.045 611.876 570.096 612.003C572.216 613.868 579.744 613.568 585.435 613.341C587.193 613.271 588.776 613.208 589.97 613.218C589.965 613.698 589.95 614.142 589.936 614.554C589.848 617.218 589.802 618.589 592.681 620.372C594.373 620.217 593.89 620.213 595.465 618.9C596.344 617.223 596.291 615.954 596.219 614.237C596.205 613.915 596.191 613.577 596.182 613.218L618.539 613.243C618.533 613.608 618.517 613.984 618.501 614.365C618.424 616.169 618.343 618.079 619.305 619.384C620.763 620.057 622.072 619.968 623.606 619.864C623.92 619.843 624.244 619.821 624.581 619.805L624.588 613.227C625.281 613.238 626.216 613.273 627.306 613.313C632.826 613.518 642.333 613.871 644.67 612.099C644.968 610.399 644.925 610.16 644.647 608.625C644.628 608.516 644.607 608.401 644.585 608.278C642.749 607.116 634.831 607.334 629.231 607.488C627.303 607.541 625.649 607.587 624.614 607.566C624.597 606.887 624.608 606.346 624.618 605.888C624.651 604.374 624.663 603.776 623.539 602.089C618.71 599.724 618.453 603.912 618.52 607.578L596.154 607.562C596.142 607.037 596.15 606.559 596.158 606.114C596.185 604.595 596.205 603.449 595.389 602.061C593.853 601.456 592.564 601.532 591.02 601.623Z"/><path fill="#ACABAB" transform="scale(0.857143 1)" d="M589.32 622.438L584.384 619.648C579.448 626.197 576.153 630.214 569.169 634.973L570.811 639.774C576.038 638.981 579.591 638.583 584.929 638.324C578.954 644.375 576.304 646.785 568.741 651.116L570.552 655.779L593.017 653.197C593.832 656.077 594.042 657.475 597.057 658.423C600.219 656.7 598.432 652.818 597.144 650.019C596.971 649.645 596.808 649.291 596.667 648.963C595.451 646.119 595.379 644.671 593.203 642.959C591.996 642.819 591.693 642.683 591.416 642.723C591.164 642.758 590.933 642.939 590.065 643.393C589.661 644.442 590.203 645.615 590.665 646.616C591.188 647.749 591.609 648.663 590.442 648.926C587.359 649.621 582.26 649.616 579.011 649.932C586.109 643.762 592.794 638.006 599.139 631.052L594.198 628.136C592.941 629.845 591.611 631.787 590.169 633.314C585.616 633.922 582.269 634.094 577.729 634.269C581.84 630.407 585.748 626.841 589.32 622.438Z"/><path fill="#ACABAB" transform="scale(0.857143 1)" d="M508.597 667.471L459.786 667.449C459.778 667.824 459.763 668.203 459.748 668.584C459.68 670.3 459.61 672.051 460.211 673.566C462.635 674.094 473.462 673.995 479.607 673.94C480.969 673.927 482.101 673.917 482.86 673.916L533.323 673.94C533.333 673.573 533.35 673.199 533.367 672.821C533.448 671.065 533.531 669.232 532.934 667.703C529.599 667.245 520 667.354 513.356 667.429C511.456 667.45 509.798 667.469 508.597 667.471Z"/><path fill="#ACABAB" transform="scale(0.857143 1)" d="M528.695 610.094C522.86 610.171 517.024 610.202 511.189 610.187C510.043 610.192 507.864 610.174 505.053 610.152C492.305 610.052 466.552 609.848 465.093 611.119C465.073 611.31 465.053 611.489 465.035 611.658C464.839 613.479 464.769 614.132 464.998 616.154C466.384 616.764 477.797 616.614 483.061 616.545C484.011 616.532 484.761 616.522 485.215 616.52L528.673 616.548L528.695 610.094Z"/><path fill="#ACABAB" transform="scale(0.857143 1)" d="M521.896 637.809L470.561 637.783L470.508 644.308L522.019 644.342L521.896 637.809Z"/><path fill="#ACABAB" transform="scale(0.857143 1)" d="M575.823 660.751C574.427 659.97 573.734 659.922 572.194 659.609C572.018 660.793 571.663 662.545 571.265 664.512C570.237 669.582 568.921 676.077 569.651 677.927L569.67 677.941C570.865 678.845 571.474 679.305 573.168 679.272C573.389 678.521 573.66 677.67 573.952 676.752C575.575 671.66 577.858 664.498 575.823 660.751Z"/><path fill="#ACABAB" transform="scale(0.857143 1)" d="M584.582 659.882L583.097 659.211C582.02 660.016 581.414 660.108 581.324 661.151C580.993 665.004 581.967 674.392 583.64 677.514C584.348 677.73 585.152 678.002 585.86 678.176C586.105 677.948 586.318 677.769 586.501 677.615C587.205 677.022 587.468 676.802 587.444 675.544C587.369 671.652 586.404 663.206 584.582 659.882Z"/></svg>